<svg version="1.1" id="cncs2_xA0_Image_1_" xmlns="http://www.w3.org/2000/svg" xmlns:xlink="http://www.w3.org/1999/xlink" x="0px"
	 y="0px" width="800px" height="393px" viewBox="0 0 800 393" enable-background="new 0 0 800 393" xml:space="preserve">
<g>
	<path fill-rule="evenodd" fill="#FFF" clip-rule="evenodd" d="M414.252,269.604c3.102,1.967,6.094,3.865,9.258,5.873
		c-7.564,13.641-15.104,27.215-25.764,38.73c-7.998,8.641-17.505,14.852-28.627,18.875c-11.182,4.043-21.859,3.541-32.072-2.43
		c-8.94-5.227-13.947-13.248-14.435-23.621c-0.698-14.842,3.756-28.826,8.259-42.662c6.596-20.264,14-40.266,20.499-60.558
		c2.515-7.854,4.02-16.134,5.021-24.337c0.797-6.539-5.952-10.84-11.936-9.396c-9.556,2.306-17.522,7.342-24.348,14.591
		c-13.646,14.492-22.001,32.091-29.339,50.103c-8.647,21.227-16.189,42.906-24.152,64.41c-3.395,9.168-6.535,18.432-10.068,27.545
		c-0.527,1.361-2.565,3.01-3.93,3.033c-13.16,0.229-26.325,0.168-39.487,0.092c-1.409-0.008-2.814-0.635-4.697-1.09
		c3.657-12.934,7.226-25.539,10.787-38.146c5.128-18.154,10.335-36.287,15.347-54.473c3.329-12.082,6.723-24.164,9.401-36.396
		c1.326-6.052,1.728-12.488,1.292-18.661c-0.197-2.783-3.107-7.107-5.429-7.58c-3.091-0.63-7.645,0.89-10.102,3.11
		c-7.813,7.061-13.096,16.18-17.929,25.46c-3.685,7.076-5.5,7.554-13.554,1.987c4.64-8.389,9.309-16.896,14.042-25.369
		c6.354-11.373,15.38-20.438,25.977-27.657c4.979-3.393,11.13-5.637,17.069-6.898c7.161-1.521,14.608-1.709,21.908,0.698
		c7.736,2.551,12.619,7.614,15.346,15.157c3.881,10.736,1.352,21.488,0.312,32.237c-0.394,4.074-1.028,8.125-0.597,12.598
		c1.011-1.791,2.147-3.522,3.013-5.381c8.463-18.164,21.423-32.728,37.627-44.01c10.667-7.426,23.179-12.076,36.352-12.312
		c13.265-0.237,26.29,2.223,33.81,15.07c2.447,4.18,3.846,9.382,4.293,14.248c1.652,17.906-3.736,34.707-9.301,51.369
		c-5.726,17.141-11.766,34.178-17.607,51.279c-1.891,5.535-3.626,11.125-5.368,16.709c-1.634,5.242-0.11,10.039,3.318,12.666
		c3.246,2.488,6.662,2.119,9.011-0.215c5.53-5.496,10.783-11.344,15.565-17.502C407.102,281.491,410.375,275.599,414.252,269.604z"
		/>
	<path fill-rule="evenodd" fill="#FFF" clip-rule="evenodd" d="M93.6,336.089c-19.238-1.197-36.719-6.145-50.089-20.791
		c-7.901-8.656-12.553-19.15-14.793-30.473c-1.483-7.494-2.323-15.316-1.99-22.928c0.727-16.604,4.968-32.527,11.785-47.711
		c7.123-15.862,17.19-29.604,29.796-41.58c16.557-15.728,36.385-24.979,58.651-28.473c15.222-2.389,30.583-0.962,44.964,5.069
		c10.671,4.475,18.866,12.142,22.551,23.427c3.666,11.225-0.271,26.796-14.011,33.175c-9.731,4.519-23.819,2.591-31.721-8.44
		c-4.596-6.415-4.792-16.974,0.034-25.162c0.742-1.259,1.786-2.34,2.53-3.598c3.105-5.249,0.542-9.925-5.51-10.745
		c-13.189-1.789-22.392,4.437-30.31,14.099c-13.562,16.552-21.156,35.984-26.37,56.254c-3.606,14.021-5.283,28.555-7.525,42.904
		c-1.597,10.223,0.994,19.512,6.738,28.195c6.259,9.461,15.194,11.352,25.61,10.828c17.495-0.883,30.38-9.992,41.379-22.553
		c3.77-4.305,7.06-9.027,10.647-13.496c2.236-2.785,4.63-5.041,7.75-0.859c0.453,0.607,1.301,1.004,2.046,1.297
		c4.204,1.656,4.146,3.783,1.864,7.52c-11.737,19.219-27.066,34.578-47.399,44.467C118.676,332.132,106.377,335.478,93.6,336.089z"
		/>
	<path fill-rule="evenodd" fill="#FFF" clip-rule="evenodd" d="M519.799,295.108c8.242-0.686,15.893-3.316,23.465-8.021
		c12.211-7.588,22.086-17.703,32.781-26.955c0.984-0.854,2.137-1.939,3.303-2.064c2.416-0.262,5.5-0.785,7.141,0.406
		c1.188,0.861,1.457,4.93,0.459,6.502c-3.467,5.455-7.184,10.918-11.693,15.506c-7.834,7.967-16.115,15.537-24.619,22.791
		c-6.393,5.453-12.928,11.117-20.305,14.943c-9.295,4.82-19.426,8.104-29.35,11.617c-14.029,4.969-28.508,3.678-41.789-1.354
		c-11.273-4.271-20.682-12.676-24.51-25.066c-2.246-7.271-5.041-14.922-4.781-22.301c0.475-13.455,2.557-26.934,8.072-39.539
		c2.193-5.01,3.656-10.438,6.473-15.055c5.627-9.229,11.664-18.247,18.107-26.925c4.119-5.546,8.771-10.929,14.07-15.315
		c8.951-7.411,18.252-14.538,28.076-20.716c7.797-4.902,16.375-8.805,25.023-12.033c7.266-2.711,15.076-4.105,22.748-5.535
		c7.393-1.377,14.898-2.652,22.387-2.858c6.834-0.188,13.826,0.534,20.533,1.911c8.439,1.732,16.822,4.08,24.92,7.017
		c7.152,2.594,16.266,12.235,11.074,21.366c-1.891,3.325-4.998,6.915-8.391,8.259c-12.527,4.962-25.084,5.232-36.107-3.998
		c-4.861-4.07-9.562-8.53-13.465-13.497c-5.355-6.812-18.664-8.921-27.131-4.117c-13.482,7.647-21.715,19.546-30.256,31.648
		c-11.279,15.981-19.18,33.474-24.834,52.048c-3.42,11.238-5.35,22.713-2.662,34.463c1.871,8.188,9.504,14.77,18.055,15.656
		C510.846,294.331,515.107,294.679,519.799,295.108z"/>
	<path fill-rule="evenodd" fill="#FFF" clip-rule="evenodd" d="M644.736,332.856c-14.963,0.895-29.018-2.471-41.01-11.299
		c-9.959-7.33-14.912-16.699-5.855-29.244c2.463-3.41,8.17-5.316,12.723-6.207c10.301-2.014,18.631,1.859,25.74,9.797
		c5.498,6.141,11.664,12.051,18.547,16.492c9.438,6.092,20.098,8.154,30.734,2.309c4.24-2.33,7.004-6.225,6.885-11.281
		c-0.238-10.127-2.598-19.801-8.279-28.285c-10.68-15.947-21.963-31.5-32.348-47.633c-5.344-8.301-10.648-16.721-11.514-27.313
		c-0.994-12.171,4.9-20.816,13.014-28.072c11.83-10.579,25.396-18.441,40.736-23.259c10.793-3.389,21.666-6.399,32.926-6.793
		c10.822-0.379,21.594,1.45,31.83,5.096c8.602,3.064,15.297,12.62,14.398,21.068c-0.355,3.355-2.787,7.438-5.545,9.418
		c-8.883,6.376-22.592,6.397-31.273-2.104c-4.895-4.791-10.727-8.745-16.533-12.454c-8.746-5.588-23.828-4.291-30.934,3.035
		c-2.268,2.339-3.348,6.867-3.148,10.287c0.221,3.799,2.191,7.646,4,11.165c2.6,5.063,5.264,10.224,8.758,14.67
		c6.426,8.177,13.693,15.692,20.195,23.813c4.699,5.869,8.871,12.18,13.008,18.471c2.826,4.299,5.854,8.658,7.619,13.424
		c3.705,9.996,4.082,20.166-1.336,29.893c-4.75,8.525-11.486,15.291-19.266,21.01c-13.516,9.936-28.568,16.623-44.947,20.111
		c-9.572,2.039-19.273,3.471-28.916,5.176C644.875,333.716,644.805,333.286,644.736,332.856z"/>
	<path fill-rule="evenodd" fill="#FFF" clip-rule="evenodd" d="M481.564,90.439c-0.012-18.567,15.119-33.62,33.703-33.527
		c18.334,0.091,33.188,15.029,33.273,33.459c0.084,18.491-15.117,33.614-33.701,33.525
		C496.521,123.81,481.578,108.785,481.564,90.439z"/>
	<path fill-rule="evenodd" fill="#FFF" clip-rule="evenodd" d="M622.09,123.897c-18.557,0.017-33.609-15.12-33.521-33.708
		c0.088-18.331,15.098-33.265,33.451-33.278c18.568-0.014,33.539,15.041,33.521,33.71
		C655.523,108.875,640.438,123.882,622.09,123.897z"/>
	<path fill-rule="evenodd" fill="#FFF" clip-rule="evenodd" d="M728.141,56.911c18.551,0.038,33.469,15.147,33.4,33.83
		c-0.068,18.245-15.199,33.19-33.572,33.156c-18.539-0.035-33.535-15.223-33.396-33.828
		C694.707,71.749,709.766,56.874,728.141,56.911z"/>
</g>
</svg>
